<svg width="70" height="40" viewBox="0 0 70 40" fill="none" xmlns="http://www.w3.org/2000/svg">
<path d="M10.3158 39.176C9.99581 39.176 9.57981 39.128 9.06781 39.032C8.55581 38.936 8.02781 38.744 7.48381 38.456C6.97181 38.2 6.53981 37.784 6.18781 37.208C5.83581 36.632 5.65981 35.864 5.65981 34.904C5.65981 34.104 5.81981 33.064 6.13981 31.784C6.45981 30.472 7.00381 28.568 7.77181 26.072C8.34781 24.184 8.90781 22.328 9.45181 20.504C10.0278 18.648 10.4918 16.728 10.8438 14.744C11.2278 12.76 11.4198 10.648 11.4198 8.408C11.4198 7.096 11.3398 5.992 11.1798 5.096C11.0198 4.2 10.7158 3.528 10.2678 3.08C9.85181 2.6 9.25981 2.36 8.49181 2.36C7.72381 2.36 7.05181 2.568 6.47581 2.984C5.89981 3.4 5.41981 3.96 5.03581 4.664C4.65181 5.336 4.36381 6.088 4.17181 6.92C3.97981 7.752 3.88381 8.584 3.88381 9.416C3.88381 10.824 4.12381 11.992 4.60381 12.92C3.03581 12.92 1.89981 12.552 1.19581 11.816C0.491813 11.08 0.139813 10.168 0.139813 9.08C0.139813 8.12 0.379813 7.128 0.859813 6.104C1.33981 5.08 1.99581 4.152 2.82781 3.32C3.69181 2.456 4.68381 1.768 5.80381 1.256C6.92381 0.711999 8.12381 0.439999 9.40381 0.439999C11.5798 0.439999 13.2278 1.24 14.3478 2.84C15.4998 4.44 16.0758 6.712 16.0758 9.656C16.0758 11.864 15.7718 14.168 15.1638 16.568C14.5878 18.936 13.8518 21.528 12.9558 24.344C12.6358 25.368 12.2518 26.504 11.8038 27.752C11.3878 28.968 11.0038 30.232 10.6518 31.544C10.3318 32.824 10.1718 34.104 10.1718 35.384C10.1718 35.992 10.2358 36.408 10.3638 36.632C10.5238 36.888 10.8118 37.016 11.2278 37.016C12.0918 37.016 13.0038 36.648 13.9638 35.912C14.9558 35.176 15.9478 34.184 16.9398 32.936C17.9318 31.688 18.8758 30.296 19.7718 28.76C20.6998 27.224 21.5478 25.656 22.3158 24.056C23.0838 22.424 23.7238 20.888 24.2358 19.448C24.7478 17.976 25.0838 16.696 25.2438 15.608C26.4598 15.608 27.4038 15.944 28.0758 16.616C28.7478 17.288 29.0838 17.928 29.0838 18.536C29.0838 18.856 28.9398 19.4 28.6518 20.168C28.3958 20.936 27.9478 22.072 27.3078 23.576C26.7958 24.792 26.2678 26.088 25.7238 27.464C25.1798 28.808 24.7158 30.152 24.3318 31.496C23.9798 32.808 23.8038 34.04 23.8038 35.192C23.8038 35.832 23.8838 36.296 24.0438 36.584C24.2358 36.872 24.5718 37.016 25.0518 37.016C25.9478 37.016 26.9718 36.568 28.1238 35.672C29.3078 34.808 30.5238 33.624 31.7718 32.12C33.0198 30.584 34.2358 28.872 35.4198 26.984C36.6038 25.064 37.6758 23.08 38.6358 21.032C39.5958 18.984 40.3478 16.968 40.8918 14.984C41.4678 13 41.7558 11.192 41.7558 9.56C41.7558 7.8 41.4358 6.552 40.7958 5.816C40.1878 5.08 39.4198 4.552 38.4918 4.232C39.0678 3.304 39.6758 2.632 40.3158 2.216C40.9878 1.768 41.5798 1.544 42.0918 1.544C42.8278 1.544 43.5798 2.024 44.3478 2.984C45.1478 3.912 45.5478 5.384 45.5478 7.4C45.5478 9.096 45.2118 11.048 44.5398 13.256C43.8998 15.464 43.0038 17.768 41.8518 20.168C40.7318 22.536 39.4358 24.856 37.9638 27.128C36.5238 29.368 34.9718 31.4 33.3078 33.224C31.6758 35.048 30.0278 36.488 28.3638 37.544C26.6998 38.632 25.1158 39.176 23.6118 39.176C22.7798 39.176 22.0278 39 21.3558 38.648C20.7158 38.328 20.2038 37.848 19.8198 37.208C19.4678 36.6 19.2918 35.88 19.2918 35.048C19.2918 34.664 19.3398 34.264 19.4358 33.848C19.5318 33.432 19.6438 33.016 19.7718 32.6C18.2038 34.584 16.6198 36.168 15.0198 37.352C13.4518 38.568 11.8838 39.176 10.3158 39.176ZM55.4418 39.176C53.5858 39.176 51.8098 38.856 50.1138 38.216C48.4498 37.576 47.0898 36.6 46.0338 35.288C44.9778 33.976 44.4498 32.344 44.4498 30.392C44.4498 28.664 44.8338 27.32 45.6018 26.36C46.3698 25.368 47.3298 24.68 48.4818 24.296C49.6338 23.912 50.7538 23.72 51.8418 23.72C50.8178 24.808 50.0338 25.928 49.4898 27.08C48.9778 28.232 48.7218 29.336 48.7218 30.392C48.7218 31.48 48.9938 32.504 49.5378 33.464C50.1138 34.392 50.9618 35.144 52.0818 35.72C53.2018 36.328 54.5938 36.632 56.2578 36.632C57.6978 36.632 59.0898 36.392 60.4338 35.912C61.8098 35.432 62.9298 34.712 63.7938 33.752C64.6898 32.792 65.1378 31.592 65.1378 30.152C65.1378 28.84 64.7538 27.72 63.9858 26.792C63.2498 25.832 62.2898 24.984 61.1058 24.248C59.9218 23.48 58.6738 22.76 57.3618 22.088C56.0498 21.384 54.8018 20.632 53.6178 19.832C52.4338 19.032 51.4578 18.104 50.6898 17.048C49.9538 15.992 49.5858 14.728 49.5858 13.256C49.5858 11.944 49.9058 10.552 50.5458 9.08C51.2178 7.576 52.1618 6.168 53.3778 4.856C54.5938 3.544 56.0658 2.488 57.7938 1.688C59.5218 0.855999 61.4418 0.439999 63.5538 0.439999C65.7618 0.439999 67.3138 0.903998 68.2098 1.832C69.1058 2.76 69.5538 3.976 69.5538 5.48C69.5538 6.664 69.3458 7.928 68.9298 9.272C68.5138 10.616 68.0018 11.896 67.3938 13.112C66.8178 14.328 66.2578 15.368 65.7138 16.232C65.0098 16.072 64.4818 15.8 64.1298 15.416C63.7778 15 63.6018 14.456 63.6018 13.784C63.6018 13.112 63.7298 12.36 63.9858 11.528C64.2738 10.696 64.5938 9.832 64.9458 8.936C65.3298 8.04 65.6498 7.176 65.9058 6.344C66.1938 5.48 66.3378 4.728 66.3378 4.088C66.3378 3.512 66.1618 3.064 65.8098 2.744C65.4898 2.424 64.8178 2.264 63.7938 2.264C62.2578 2.264 60.8498 2.6 59.5698 3.272C58.2898 3.944 57.1698 4.792 56.2098 5.816C55.2818 6.84 54.5618 7.928 54.0498 9.08C53.5378 10.2 53.2818 11.224 53.2818 12.152C53.2818 13.304 53.6498 14.296 54.3858 15.128C55.1218 15.928 56.0658 16.664 57.2178 17.336C58.4018 18.008 59.6338 18.68 60.9138 19.352C62.2258 20.024 63.4578 20.776 64.6098 21.608C65.7938 22.44 66.7538 23.432 67.4898 24.584C68.2258 25.736 68.5938 27.144 68.5938 28.808C68.5938 30.472 68.2098 31.944 67.4418 33.224C66.7058 34.504 65.6978 35.576 64.4178 36.44C63.1378 37.336 61.7138 38.008 60.1458 38.456C58.6098 38.936 57.0418 39.176 55.4418 39.176Z" fill="#F3F3F3"/>
</svg>
